<svg width="32" height="34" viewBox="0 0 32 34" fill="none" xmlns="http://www.w3.org/2000/svg">
<rect width="32" height="34" fill="#1E1E1E"/>
<rect width="32" height="32" fill="white"/>
<g filter="url(#filter0_d_0_1)">
<path d="M4.17419 26V24.8677C4.83226 24.7903 5.39355 24.6258 5.85806 24.3742C6.32258 24.1032 6.73871 23.7065 7.10645 23.1839C7.49355 22.6419 7.87097 21.9452 8.23871 21.0935L14.9452 5.24194H15.9903L23.5097 22.371C23.9161 23.2613 24.3806 23.8903 24.9032 24.2581C25.4258 24.6258 26.1613 24.829 27.1097 24.8677V26C26.5484 25.9613 25.8419 25.9419 24.9903 25.9419C24.1387 25.9226 23.1516 25.9129 22.029 25.9129C20.771 25.9129 19.6871 25.9226 18.7774 25.9419C17.8871 25.9419 17.2 25.9613 16.7161 26V24.8677C17.7032 24.8484 18.429 24.7613 18.8935 24.6065C19.3774 24.4516 19.6484 24.1903 19.7065 23.8226C19.7645 23.4548 19.6484 22.9516 19.3581 22.3129L13.8129 9.53871L14.4516 9.16129L9.89355 20.0194C9.42903 21.1226 9.19677 22.0226 9.19677 22.7194C9.21613 23.4161 9.4871 23.9387 10.0097 24.2871C10.5323 24.6355 11.3355 24.829 12.4194 24.8677V26C11.8 25.9806 11.2194 25.971 10.6774 25.971C10.1355 25.9516 9.62258 25.9419 9.13871 25.9419C8.65484 25.9226 8.16129 25.9129 7.65806 25.9129C7.03871 25.9129 6.44839 25.9226 5.8871 25.9419C5.32581 25.9419 4.75484 25.9613 4.17419 26ZM9.57419 19.2065L10.0677 18.0742H19.1258L19.5903 19.2065H9.57419Z" fill="#E27E64"/>
</g>
<defs>
<filter id="filter0_d_0_1" x="0.174194" y="5.24194" width="30.9355" height="28.7581" filterUnits="userSpaceOnUse" color-interpolation-filters="sRGB">
<feFlood flood-opacity="0" result="BackgroundImageFix"/>
<feColorMatrix in="SourceAlpha" type="matrix" values="0 0 0 0 0 0 0 0 0 0 0 0 0 0 0 0 0 0 127 0" result="hardAlpha"/>
<feOffset dy="4"/>
<feGaussianBlur stdDeviation="2"/>
<feComposite in2="hardAlpha" operator="out"/>
<feColorMatrix type="matrix" values="0 0 0 0 0 0 0 0 0 0 0 0 0 0 0 0 0 0 0.25 0"/>
<feBlend mode="normal" in2="BackgroundImageFix" result="effect1_dropShadow_0_1"/>
<feBlend mode="normal" in="SourceGraphic" in2="effect1_dropShadow_0_1" result="shape"/>
</filter>
</defs>
</svg>
